<svg xmlns="http://www.w3.org/2000/svg" xmlns:xlink="http://www.w3.org/1999/xlink" width="500" zoomAndPan="magnify" viewBox="0 0 375 374.999991" height="500" preserveAspectRatio="xMidYMid meet" version="1.0"><defs><clipPath id="6d632ccf09"><path d="M 112 67.8125 L 263 67.8125 L 263 234.3125 L 112 234.3125 Z M 112 67.8125 " clip-rule="nonzero"/></clipPath><clipPath id="71880fd3e9"><path d="M 141.539062 141.292969 L 173 141.292969 L 173 145.792969 L 141.539062 145.792969 Z M 141.539062 141.292969 " clip-rule="nonzero"/></clipPath><clipPath id="2e533b69b3"><path d="M 135.644531 137.375 L 147.644531 137.375 L 147.644531 149.375 L 135.644531 149.375 Z M 135.644531 137.375 " clip-rule="nonzero"/></clipPath><clipPath id="e11eaa28fb"><path d="M 141.539062 161.429688 L 173 161.429688 L 173 165.929688 L 141.539062 165.929688 Z M 141.539062 161.429688 " clip-rule="nonzero"/></clipPath><clipPath id="56b1827011"><path d="M 135.644531 157.511719 L 147.644531 157.511719 L 147.644531 169.511719 L 135.644531 169.511719 Z M 135.644531 157.511719 " clip-rule="nonzero"/></clipPath><clipPath id="4c54fca3e7"><path d="M 175.453125 163.800781 L 179.953125 163.800781 L 179.953125 195.300781 L 175.453125 195.300781 Z M 175.453125 163.800781 " clip-rule="nonzero"/></clipPath><clipPath id="46044e83d2"><path d="M 171.535156 189.203125 L 183.535156 189.203125 L 183.535156 201.203125 L 171.535156 201.203125 Z M 171.535156 189.203125 " clip-rule="nonzero"/></clipPath><clipPath id="b6eb76a1b1"><path d="M 195.589844 163.800781 L 200.089844 163.800781 L 200.089844 195.300781 L 195.589844 195.300781 Z M 195.589844 163.800781 " clip-rule="nonzero"/></clipPath><clipPath id="095e7ecaae"><path d="M 191.671875 189.203125 L 203.671875 189.203125 L 203.671875 201.203125 L 191.671875 201.203125 Z M 191.671875 189.203125 " clip-rule="nonzero"/></clipPath><clipPath id="49e36ec3f5"><path d="M 202 160.875 L 233.449219 160.875 L 233.449219 165.375 L 202 165.375 Z M 202 160.875 " clip-rule="nonzero"/></clipPath><clipPath id="fd92f6a57c"><path d="M 227.351562 157.300781 L 239.351562 157.300781 L 239.351562 169.300781 L 227.351562 169.300781 Z M 227.351562 157.300781 " clip-rule="nonzero"/></clipPath><clipPath id="abe534c198"><path d="M 202 140.742188 L 233.449219 140.742188 L 233.449219 145.242188 L 202 145.242188 Z M 202 140.742188 " clip-rule="nonzero"/></clipPath><clipPath id="654a3f44c3"><path d="M 227.351562 137.164062 L 239.351562 137.164062 L 239.351562 149.164062 L 227.351562 149.164062 Z M 227.351562 137.164062 " clip-rule="nonzero"/></clipPath><clipPath id="db52dcac24"><path d="M 157.265625 129 L 218 129 L 218 177.71875 L 157.265625 177.71875 Z M 157.265625 129 " clip-rule="nonzero"/></clipPath><clipPath id="3c8d2bac16"><path d="M 167 96.71875 L 208 96.71875 L 208 128 L 167 128 Z M 167 96.71875 " clip-rule="nonzero"/></clipPath></defs><path fill="#289dd2" d="M 259.246094 92.332031 L 187.476562 70.042969 L 115.742188 92.332031 C 115.742188 92.332031 98.285156 204.25 187.476562 232.171875 C 276.703125 204.25 259.246094 92.332031 259.246094 92.332031 Z M 259.246094 92.332031 " fill-opacity="1" fill-rule="nonzero"/><path fill="#f7f8fa" d="M 187.476562 232.503906 L 187.378906 232.46875 C 166.953125 226.074219 150.460938 214.746094 138.367188 198.71875 C 128.671875 185.925781 121.773438 170.164062 117.808594 151.839844 C 111.078125 120.6875 115.34375 92.53125 115.378906 92.265625 L 115.410156 92.066406 L 187.476562 69.675781 L 187.578125 69.710938 L 259.546875 92.066406 L 259.578125 92.265625 C 259.613281 92.53125 263.878906 120.652344 257.148438 151.839844 C 253.183594 170.164062 246.285156 185.925781 236.589844 198.71875 C 224.496094 214.710938 208.003906 226.074219 187.578125 232.46875 Z M 116.042969 92.597656 C 115.675781 95.199219 112.113281 122.085938 118.507812 151.738281 C 122.441406 169.964844 129.304688 185.65625 138.933594 198.351562 C 150.929688 214.210938 167.289062 225.472656 187.511719 231.804688 C 207.734375 225.441406 224.09375 214.179688 236.089844 198.320312 C 245.71875 185.589844 252.582031 169.898438 256.515625 151.671875 C 262.910156 122.019531 259.347656 95.132812 258.980469 92.53125 L 187.476562 70.375 Z M 116.042969 92.597656 " fill-opacity="1" fill-rule="nonzero"/><g clip-path="url(#6d632ccf09)"><path fill="#f7f8fa" d="M 262.710938 110.226562 C 262.476562 99.261719 261.410156 92.300781 261.34375 92.03125 L 261.144531 90.734375 L 187.746094 67.878906 L 187.511719 67.8125 L 113.84375 90.699219 L 113.644531 92 C 113.613281 92.300781 112.546875 99.296875 112.277344 110.191406 C 112.046875 120.289062 112.546875 135.746094 116.078125 152.207031 C 120.074219 170.796875 127.105469 186.789062 136.933594 199.785156 C 149.261719 216.078125 166.054688 227.640625 186.84375 234.167969 L 187.476562 234.371094 L 188.109375 234.167969 C 208.902344 227.671875 225.695312 216.109375 238.023438 199.785156 C 247.851562 186.789062 254.882812 170.765625 258.878906 152.207031 C 262.445312 135.78125 262.910156 120.289062 262.710938 110.226562 Z M 187.476562 72.242188 L 257.3125 93.933594 C 258.046875 99.828125 260.546875 124.386719 254.746094 151.304688 C 250.882812 169.265625 244.121094 184.726562 234.65625 197.21875 C 222.996094 212.644531 207.136719 223.640625 187.511719 229.90625 C 167.886719 223.640625 152.0625 212.644531 140.398438 197.253906 C 130.9375 184.757812 124.171875 169.332031 120.273438 151.375 C 116.777344 135.347656 116.308594 120.253906 116.511719 110.390625 C 116.675781 102.429688 117.308594 96.566406 117.644531 93.964844 Z M 187.476562 72.242188 " fill-opacity="1" fill-rule="nonzero"/></g><g clip-path="url(#71880fd3e9)"><path fill="#bddaec" d="M 143.535156 141.292969 L 170.988281 141.292969 C 171.246094 141.292969 171.5 141.34375 171.738281 141.445312 C 171.980469 141.542969 172.191406 141.6875 172.378906 141.871094 C 172.5625 142.054688 172.703125 142.269531 172.804688 142.507812 C 172.902344 142.75 172.953125 143 172.953125 143.261719 L 172.953125 144.179688 C 172.953125 144.441406 172.902344 144.691406 172.804688 144.933594 C 172.703125 145.171875 172.5625 145.386719 172.378906 145.570312 C 172.191406 145.753906 171.980469 145.898438 171.738281 145.996094 C 171.5 146.097656 171.246094 146.148438 170.988281 146.148438 L 143.535156 146.148438 C 143.273438 146.148438 143.023438 146.097656 142.78125 145.996094 C 142.542969 145.898438 142.328125 145.753906 142.144531 145.570312 C 141.960938 145.386719 141.816406 145.171875 141.71875 144.933594 C 141.617188 144.691406 141.570312 144.441406 141.570312 144.179688 L 141.570312 143.261719 C 141.570312 143 141.617188 142.75 141.71875 142.507812 C 141.816406 142.269531 141.960938 142.054688 142.144531 141.871094 C 142.328125 141.6875 142.542969 141.542969 142.78125 141.445312 C 143.023438 141.34375 143.273438 141.292969 143.535156 141.292969 Z M 143.535156 141.292969 " fill-opacity="1" fill-rule="nonzero"/></g><g clip-path="url(#2e533b69b3)"><path fill="#bddaec" d="M 147.433594 143.269531 C 147.433594 143.65625 147.394531 144.039062 147.320312 144.421875 C 147.242188 144.800781 147.132812 145.167969 146.984375 145.527344 C 146.835938 145.882812 146.652344 146.222656 146.4375 146.546875 C 146.222656 146.867188 145.980469 147.164062 145.707031 147.4375 C 145.433594 147.710938 145.132812 147.957031 144.8125 148.171875 C 144.492188 148.386719 144.152344 148.566406 143.792969 148.714844 C 143.4375 148.863281 143.066406 148.976562 142.6875 149.050781 C 142.308594 149.128906 141.925781 149.164062 141.539062 149.164062 C 141.152344 149.164062 140.769531 149.128906 140.386719 149.050781 C 140.007812 148.976562 139.640625 148.863281 139.28125 148.714844 C 138.925781 148.566406 138.585938 148.386719 138.261719 148.171875 C 137.941406 147.957031 137.644531 147.710938 137.371094 147.4375 C 137.097656 147.164062 136.851562 146.867188 136.636719 146.546875 C 136.421875 146.222656 136.242188 145.882812 136.09375 145.527344 C 135.945312 145.167969 135.832031 144.800781 135.757812 144.421875 C 135.679688 144.039062 135.644531 143.65625 135.644531 143.269531 C 135.644531 142.882812 135.679688 142.5 135.757812 142.121094 C 135.832031 141.742188 135.945312 141.371094 136.09375 141.015625 C 136.242188 140.65625 136.421875 140.316406 136.636719 139.996094 C 136.851562 139.675781 137.097656 139.375 137.371094 139.101562 C 137.644531 138.828125 137.941406 138.585938 138.261719 138.371094 C 138.585938 138.15625 138.925781 137.972656 139.28125 137.824219 C 139.640625 137.675781 140.007812 137.566406 140.386719 137.488281 C 140.769531 137.414062 141.152344 137.375 141.539062 137.375 C 141.925781 137.375 142.308594 137.414062 142.6875 137.488281 C 143.066406 137.566406 143.4375 137.675781 143.792969 137.824219 C 144.152344 137.972656 144.492188 138.15625 144.8125 138.371094 C 145.132812 138.585938 145.433594 138.828125 145.707031 139.101562 C 145.980469 139.375 146.222656 139.675781 146.4375 139.996094 C 146.652344 140.316406 146.835938 140.65625 146.984375 141.015625 C 147.132812 141.371094 147.242188 141.742188 147.320312 142.121094 C 147.394531 142.5 147.433594 142.882812 147.433594 143.269531 Z M 147.433594 143.269531 " fill-opacity="1" fill-rule="nonzero"/></g><g clip-path="url(#e11eaa28fb)"><path fill="#bddaec" d="M 143.535156 161.429688 L 170.988281 161.429688 C 171.246094 161.429688 171.5 161.480469 171.738281 161.578125 C 171.980469 161.679688 172.191406 161.820312 172.378906 162.003906 C 172.5625 162.1875 172.703125 162.402344 172.804688 162.644531 C 172.902344 162.882812 172.953125 163.132812 172.953125 163.394531 L 172.953125 164.3125 C 172.953125 164.574219 172.902344 164.824219 172.804688 165.066406 C 172.703125 165.308594 172.5625 165.519531 172.378906 165.703125 C 172.191406 165.890625 171.980469 166.03125 171.738281 166.132812 C 171.5 166.230469 171.246094 166.28125 170.988281 166.28125 L 143.535156 166.28125 C 143.273438 166.28125 143.023438 166.230469 142.78125 166.132812 C 142.542969 166.03125 142.328125 165.890625 142.144531 165.703125 C 141.960938 165.519531 141.816406 165.308594 141.71875 165.066406 C 141.617188 164.824219 141.570312 164.574219 141.570312 164.3125 L 141.570312 163.394531 C 141.570312 163.132812 141.617188 162.882812 141.71875 162.644531 C 141.816406 162.402344 141.960938 162.1875 142.144531 162.003906 C 142.328125 161.820312 142.542969 161.679688 142.78125 161.578125 C 143.023438 161.480469 143.273438 161.429688 143.535156 161.429688 Z M 143.535156 161.429688 " fill-opacity="1" fill-rule="nonzero"/></g><g clip-path="url(#56b1827011)"><path fill="#bddaec" d="M 147.433594 163.40625 C 147.433594 163.792969 147.394531 164.175781 147.320312 164.554688 C 147.242188 164.933594 147.132812 165.304688 146.984375 165.660156 C 146.835938 166.019531 146.652344 166.359375 146.4375 166.679688 C 146.222656 167 145.980469 167.300781 145.707031 167.574219 C 145.433594 167.847656 145.132812 168.089844 144.8125 168.304688 C 144.492188 168.519531 144.152344 168.703125 143.792969 168.851562 C 143.4375 169 143.066406 169.109375 142.6875 169.1875 C 142.308594 169.261719 141.925781 169.300781 141.539062 169.300781 C 141.152344 169.300781 140.769531 169.261719 140.386719 169.1875 C 140.007812 169.109375 139.640625 169 139.28125 168.851562 C 138.925781 168.703125 138.585938 168.519531 138.261719 168.304688 C 137.941406 168.089844 137.644531 167.847656 137.371094 167.574219 C 137.097656 167.300781 136.851562 167 136.636719 166.679688 C 136.421875 166.359375 136.242188 166.019531 136.09375 165.660156 C 135.945312 165.304688 135.832031 164.933594 135.757812 164.554688 C 135.679688 164.175781 135.644531 163.792969 135.644531 163.40625 C 135.644531 163.019531 135.679688 162.632812 135.757812 162.253906 C 135.832031 161.875 135.945312 161.507812 136.09375 161.148438 C 136.242188 160.792969 136.421875 160.453125 136.636719 160.128906 C 136.851562 159.808594 137.097656 159.511719 137.371094 159.238281 C 137.644531 158.964844 137.941406 158.71875 138.261719 158.503906 C 138.585938 158.289062 138.925781 158.105469 139.28125 157.957031 C 139.640625 157.8125 140.007812 157.699219 140.386719 157.625 C 140.769531 157.546875 141.152344 157.511719 141.539062 157.511719 C 141.925781 157.511719 142.308594 157.546875 142.6875 157.625 C 143.066406 157.699219 143.4375 157.8125 143.792969 157.957031 C 144.152344 158.105469 144.492188 158.289062 144.8125 158.503906 C 145.132812 158.71875 145.433594 158.964844 145.707031 159.238281 C 145.980469 159.511719 146.222656 159.808594 146.4375 160.128906 C 146.652344 160.453125 146.835938 160.792969 146.984375 161.148438 C 147.132812 161.507812 147.242188 161.875 147.320312 162.253906 C 147.394531 162.632812 147.433594 163.019531 147.433594 163.40625 Z M 147.433594 163.40625 " fill-opacity="1" fill-rule="nonzero"/></g><g clip-path="url(#4c54fca3e7)"><path fill="#bddaec" d="M 175.453125 193.304688 L 175.453125 165.855469 C 175.453125 165.59375 175.503906 165.34375 175.605469 165.101562 C 175.703125 164.859375 175.847656 164.648438 176.03125 164.464844 C 176.214844 164.277344 176.425781 164.136719 176.667969 164.039062 C 176.910156 163.9375 177.160156 163.886719 177.421875 163.886719 L 178.339844 163.886719 C 178.601562 163.886719 178.851562 163.9375 179.09375 164.039062 C 179.332031 164.136719 179.546875 164.277344 179.730469 164.464844 C 179.914062 164.648438 180.058594 164.859375 180.15625 165.101562 C 180.257812 165.34375 180.304688 165.59375 180.304688 165.855469 L 180.304688 193.304688 C 180.304688 193.566406 180.257812 193.816406 180.15625 194.058594 C 180.058594 194.300781 179.914062 194.511719 179.730469 194.695312 C 179.546875 194.878906 179.332031 195.023438 179.09375 195.121094 C 178.851562 195.222656 178.601562 195.273438 178.339844 195.273438 L 177.421875 195.273438 C 177.160156 195.273438 176.910156 195.222656 176.667969 195.121094 C 176.425781 195.023438 176.214844 194.878906 176.03125 194.695312 C 175.847656 194.511719 175.703125 194.300781 175.605469 194.058594 C 175.503906 193.816406 175.453125 193.566406 175.453125 193.304688 Z M 175.453125 193.304688 " fill-opacity="1" fill-rule="nonzero"/></g><g clip-path="url(#46044e83d2)"><path fill="#bddaec" d="M 177.429688 189.414062 C 177.816406 189.414062 178.199219 189.449219 178.582031 189.527344 C 178.960938 189.601562 179.328125 189.714844 179.6875 189.863281 C 180.042969 190.007812 180.382812 190.191406 180.707031 190.40625 C 181.027344 190.621094 181.324219 190.867188 181.597656 191.140625 C 181.871094 191.414062 182.117188 191.710938 182.332031 192.03125 C 182.546875 192.355469 182.726562 192.695312 182.875 193.050781 C 183.023438 193.410156 183.136719 193.777344 183.210938 194.15625 C 183.289062 194.535156 183.324219 194.921875 183.324219 195.308594 C 183.324219 195.695312 183.289062 196.078125 183.210938 196.457031 C 183.136719 196.835938 183.023438 197.207031 182.875 197.5625 C 182.726562 197.921875 182.546875 198.261719 182.332031 198.582031 C 182.117188 198.902344 181.871094 199.203125 181.597656 199.476562 C 181.324219 199.75 181.027344 199.992188 180.707031 200.207031 C 180.382812 200.421875 180.042969 200.605469 179.6875 200.753906 C 179.328125 200.902344 178.960938 201.011719 178.582031 201.089844 C 178.199219 201.164062 177.816406 201.203125 177.429688 201.203125 C 177.042969 201.203125 176.660156 201.164062 176.28125 201.089844 C 175.902344 201.011719 175.53125 200.902344 175.175781 200.753906 C 174.816406 200.605469 174.476562 200.421875 174.15625 200.207031 C 173.835938 199.992188 173.535156 199.75 173.261719 199.476562 C 172.988281 199.203125 172.746094 198.902344 172.53125 198.582031 C 172.316406 198.261719 172.132812 197.921875 171.984375 197.5625 C 171.835938 197.207031 171.726562 196.835938 171.648438 196.457031 C 171.574219 196.078125 171.535156 195.695312 171.535156 195.308594 C 171.535156 194.921875 171.574219 194.535156 171.648438 194.15625 C 171.726562 193.777344 171.835938 193.410156 171.984375 193.050781 C 172.132812 192.695312 172.316406 192.355469 172.53125 192.03125 C 172.746094 191.710938 172.988281 191.414062 173.261719 191.140625 C 173.535156 190.867188 173.835938 190.621094 174.15625 190.40625 C 174.476562 190.191406 174.816406 190.007812 175.175781 189.863281 C 175.53125 189.714844 175.902344 189.601562 176.28125 189.527344 C 176.660156 189.449219 177.042969 189.414062 177.429688 189.414062 Z M 177.429688 189.414062 " fill-opacity="1" fill-rule="nonzero"/></g><g clip-path="url(#b6eb76a1b1)"><path fill="#bddaec" d="M 195.589844 193.304688 L 195.589844 165.855469 C 195.589844 165.59375 195.636719 165.34375 195.738281 165.101562 C 195.839844 164.859375 195.980469 164.648438 196.164062 164.464844 C 196.347656 164.277344 196.5625 164.136719 196.804688 164.039062 C 197.042969 163.9375 197.292969 163.886719 197.554688 163.886719 L 198.472656 163.886719 C 198.734375 163.886719 198.984375 163.9375 199.226562 164.039062 C 199.46875 164.136719 199.679688 164.277344 199.863281 164.464844 C 200.050781 164.648438 200.191406 164.859375 200.289062 165.101562 C 200.390625 165.34375 200.441406 165.59375 200.441406 165.855469 L 200.441406 193.304688 C 200.441406 193.566406 200.390625 193.816406 200.289062 194.058594 C 200.191406 194.300781 200.050781 194.511719 199.863281 194.695312 C 199.679688 194.878906 199.46875 195.023438 199.226562 195.121094 C 198.984375 195.222656 198.734375 195.273438 198.472656 195.273438 L 197.554688 195.273438 C 197.292969 195.273438 197.042969 195.222656 196.804688 195.121094 C 196.5625 195.023438 196.347656 194.878906 196.164062 194.695312 C 195.980469 194.511719 195.839844 194.300781 195.738281 194.058594 C 195.636719 193.816406 195.589844 193.566406 195.589844 193.304688 Z M 195.589844 193.304688 " fill-opacity="1" fill-rule="nonzero"/></g><g clip-path="url(#095e7ecaae)"><path fill="#bddaec" d="M 197.566406 189.414062 C 197.953125 189.414062 198.335938 189.449219 198.714844 189.527344 C 199.09375 189.601562 199.464844 189.714844 199.820312 189.863281 C 200.179688 190.007812 200.519531 190.191406 200.839844 190.40625 C 201.160156 190.621094 201.460938 190.867188 201.734375 191.140625 C 202.007812 191.414062 202.25 191.710938 202.464844 192.03125 C 202.679688 192.355469 202.863281 192.695312 203.011719 193.050781 C 203.160156 193.410156 203.269531 193.777344 203.347656 194.15625 C 203.421875 194.535156 203.460938 194.921875 203.460938 195.308594 C 203.460938 195.695312 203.421875 196.078125 203.347656 196.457031 C 203.269531 196.835938 203.160156 197.207031 203.011719 197.5625 C 202.863281 197.921875 202.679688 198.261719 202.464844 198.582031 C 202.25 198.902344 202.007812 199.203125 201.734375 199.476562 C 201.460938 199.75 201.160156 199.992188 200.839844 200.207031 C 200.519531 200.421875 200.179688 200.605469 199.820312 200.753906 C 199.464844 200.902344 199.09375 201.011719 198.714844 201.089844 C 198.335938 201.164062 197.953125 201.203125 197.566406 201.203125 C 197.175781 201.203125 196.792969 201.164062 196.414062 201.089844 C 196.035156 201.011719 195.667969 200.902344 195.308594 200.753906 C 194.953125 200.605469 194.613281 200.421875 194.289062 200.207031 C 193.96875 199.992188 193.671875 199.75 193.398438 199.476562 C 193.121094 199.203125 192.878906 198.902344 192.664062 198.582031 C 192.449219 198.261719 192.265625 197.921875 192.117188 197.5625 C 191.972656 197.207031 191.859375 196.835938 191.785156 196.457031 C 191.707031 196.078125 191.671875 195.695312 191.671875 195.308594 C 191.671875 194.921875 191.707031 194.535156 191.785156 194.15625 C 191.859375 193.777344 191.972656 193.410156 192.117188 193.050781 C 192.265625 192.695312 192.449219 192.355469 192.664062 192.03125 C 192.878906 191.710938 193.121094 191.414062 193.398438 191.140625 C 193.671875 190.867188 193.96875 190.621094 194.289062 190.40625 C 194.613281 190.191406 194.953125 190.007812 195.308594 189.863281 C 195.667969 189.714844 196.035156 189.601562 196.414062 189.527344 C 196.792969 189.449219 197.175781 189.414062 197.566406 189.414062 Z M 197.566406 189.414062 " fill-opacity="1" fill-rule="nonzero"/></g><g clip-path="url(#49e36ec3f5)"><path fill="#bddaec" d="M 231.457031 165.375 L 204.003906 165.375 C 203.742188 165.375 203.492188 165.328125 203.25 165.226562 C 203.011719 165.125 202.796875 164.984375 202.613281 164.800781 C 202.429688 164.617188 202.285156 164.402344 202.1875 164.164062 C 202.085938 163.921875 202.039062 163.671875 202.039062 163.410156 L 202.039062 162.492188 C 202.039062 162.230469 202.085938 161.980469 202.1875 161.738281 C 202.285156 161.496094 202.429688 161.285156 202.613281 161.101562 C 202.796875 160.917969 203.011719 160.773438 203.25 160.675781 C 203.492188 160.574219 203.742188 160.523438 204.003906 160.523438 L 231.457031 160.523438 C 231.714844 160.523438 231.96875 160.574219 232.207031 160.675781 C 232.449219 160.773438 232.660156 160.917969 232.847656 161.101562 C 233.03125 161.285156 233.171875 161.496094 233.273438 161.738281 C 233.371094 161.980469 233.421875 162.230469 233.421875 162.492188 L 233.421875 163.410156 C 233.421875 163.671875 233.371094 163.921875 233.273438 164.164062 C 233.171875 164.402344 233.03125 164.617188 232.847656 164.800781 C 232.660156 164.984375 232.449219 165.125 232.207031 165.226562 C 231.96875 165.328125 231.714844 165.375 231.457031 165.375 Z M 231.457031 165.375 " fill-opacity="1" fill-rule="nonzero"/></g><g clip-path="url(#fd92f6a57c)"><path fill="#bddaec" d="M 227.5625 163.40625 C 227.5625 163.019531 227.601562 162.632812 227.675781 162.253906 C 227.75 161.875 227.863281 161.507812 228.011719 161.148438 C 228.160156 160.792969 228.339844 160.453125 228.554688 160.128906 C 228.769531 159.808594 229.015625 159.511719 229.289062 159.238281 C 229.5625 158.964844 229.859375 158.71875 230.183594 158.503906 C 230.503906 158.289062 230.84375 158.105469 231.203125 157.957031 C 231.558594 157.8125 231.929688 157.699219 232.308594 157.625 C 232.6875 157.546875 233.070312 157.511719 233.457031 157.511719 C 233.84375 157.511719 234.226562 157.546875 234.605469 157.625 C 234.988281 157.699219 235.355469 157.8125 235.714844 157.957031 C 236.070312 158.105469 236.410156 158.289062 236.730469 158.503906 C 237.054688 158.71875 237.351562 158.964844 237.625 159.238281 C 237.898438 159.511719 238.144531 159.808594 238.359375 160.128906 C 238.574219 160.453125 238.753906 160.792969 238.902344 161.148438 C 239.050781 161.507812 239.164062 161.875 239.238281 162.253906 C 239.3125 162.632812 239.351562 163.019531 239.351562 163.40625 C 239.351562 163.792969 239.3125 164.175781 239.238281 164.554688 C 239.164062 164.933594 239.050781 165.304688 238.902344 165.660156 C 238.753906 166.019531 238.574219 166.359375 238.359375 166.679688 C 238.144531 167 237.898438 167.300781 237.625 167.574219 C 237.351562 167.847656 237.054688 168.089844 236.730469 168.304688 C 236.410156 168.519531 236.070312 168.703125 235.714844 168.851562 C 235.355469 169 234.988281 169.109375 234.605469 169.1875 C 234.226562 169.261719 233.84375 169.300781 233.457031 169.300781 C 233.070312 169.300781 232.6875 169.261719 232.308594 169.1875 C 231.929688 169.109375 231.558594 169 231.203125 168.851562 C 230.84375 168.703125 230.503906 168.519531 230.183594 168.304688 C 229.859375 168.089844 229.5625 167.847656 229.289062 167.574219 C 229.015625 167.300781 228.769531 167 228.554688 166.679688 C 228.339844 166.359375 228.160156 166.019531 228.011719 165.660156 C 227.863281 165.304688 227.75 164.933594 227.675781 164.554688 C 227.601562 164.175781 227.5625 163.792969 227.5625 163.40625 Z M 227.5625 163.40625 " fill-opacity="1" fill-rule="nonzero"/></g><g clip-path="url(#abe534c198)"><path fill="#bddaec" d="M 231.457031 145.242188 L 204.003906 145.242188 C 203.742188 145.242188 203.492188 145.191406 203.25 145.09375 C 203.011719 144.992188 202.796875 144.851562 202.613281 144.667969 C 202.429688 144.480469 202.285156 144.269531 202.1875 144.027344 C 202.085938 143.789062 202.039062 143.535156 202.039062 143.277344 L 202.039062 142.355469 C 202.039062 142.097656 202.085938 141.84375 202.1875 141.605469 C 202.285156 141.363281 202.429688 141.152344 202.613281 140.964844 C 202.796875 140.78125 203.011719 140.640625 203.25 140.539062 C 203.492188 140.441406 203.742188 140.390625 204.003906 140.390625 L 231.457031 140.390625 C 231.714844 140.390625 231.96875 140.441406 232.207031 140.539062 C 232.449219 140.640625 232.660156 140.78125 232.847656 140.964844 C 233.03125 141.152344 233.171875 141.363281 233.273438 141.605469 C 233.371094 141.84375 233.421875 142.097656 233.421875 142.355469 L 233.421875 143.277344 C 233.421875 143.535156 233.371094 143.789062 233.273438 144.027344 C 233.171875 144.269531 233.03125 144.480469 232.847656 144.667969 C 232.660156 144.851562 232.449219 144.992188 232.207031 145.09375 C 231.96875 145.191406 231.714844 145.242188 231.457031 145.242188 Z M 231.457031 145.242188 " fill-opacity="1" fill-rule="nonzero"/></g><g clip-path="url(#654a3f44c3)"><path fill="#bddaec" d="M 227.5625 143.269531 C 227.5625 142.882812 227.601562 142.5 227.675781 142.121094 C 227.75 141.742188 227.863281 141.371094 228.011719 141.015625 C 228.160156 140.65625 228.339844 140.316406 228.554688 139.996094 C 228.769531 139.675781 229.015625 139.375 229.289062 139.101562 C 229.5625 138.828125 229.859375 138.585938 230.183594 138.371094 C 230.503906 138.15625 230.84375 137.972656 231.203125 137.824219 C 231.558594 137.675781 231.929688 137.566406 232.308594 137.488281 C 232.6875 137.414062 233.070312 137.375 233.457031 137.375 C 233.84375 137.375 234.226562 137.414062 234.605469 137.488281 C 234.988281 137.566406 235.355469 137.675781 235.714844 137.824219 C 236.070312 137.972656 236.410156 138.15625 236.730469 138.371094 C 237.054688 138.585938 237.351562 138.828125 237.625 139.101562 C 237.898438 139.375 238.144531 139.675781 238.359375 139.996094 C 238.574219 140.316406 238.753906 140.65625 238.902344 141.015625 C 239.050781 141.371094 239.164062 141.742188 239.238281 142.121094 C 239.3125 142.5 239.351562 142.882812 239.351562 143.269531 C 239.351562 143.65625 239.3125 144.039062 239.238281 144.421875 C 239.164062 144.800781 239.050781 145.167969 238.902344 145.527344 C 238.753906 145.882812 238.574219 146.222656 238.359375 146.546875 C 238.144531 146.867188 237.898438 147.164062 237.625 147.4375 C 237.351562 147.710938 237.054688 147.957031 236.730469 148.171875 C 236.410156 148.386719 236.070312 148.566406 235.714844 148.714844 C 235.355469 148.863281 234.988281 148.976562 234.605469 149.050781 C 234.226562 149.128906 233.84375 149.164062 233.457031 149.164062 C 233.070312 149.164062 232.6875 149.128906 232.308594 149.050781 C 231.929688 148.976562 231.558594 148.863281 231.203125 148.714844 C 230.84375 148.566406 230.503906 148.386719 230.183594 148.171875 C 229.859375 147.957031 229.5625 147.710938 229.289062 147.4375 C 229.015625 147.164062 228.769531 146.867188 228.554688 146.546875 C 228.339844 146.222656 228.160156 145.882812 228.011719 145.527344 C 227.863281 145.167969 227.75 144.800781 227.675781 144.421875 C 227.601562 144.039062 227.5625 143.65625 227.5625 143.269531 Z M 227.5625 143.269531 " fill-opacity="1" fill-rule="nonzero"/></g><g clip-path="url(#db52dcac24)"><path fill="#285981" d="M 165.269531 178.023438 L 209.726562 178.023438 C 214.125 178.023438 217.695312 174.449219 217.695312 170.054688 L 217.695312 137.78125 C 217.695312 133.386719 214.125 129.8125 209.726562 129.8125 L 165.269531 129.8125 C 160.875 129.8125 157.296875 133.382812 157.296875 137.78125 L 157.296875 170.054688 C 157.300781 174.449219 160.875 178.023438 165.269531 178.023438 Z M 182.78125 145.289062 C 184.605469 143.820312 186.964844 143.320312 189.285156 143.820312 C 191.96875 144.429688 194.003906 146.394531 194.753906 149.003906 C 195.46875 151.574219 194.898438 154.257812 193.148438 156.222656 C 192.933594 156.472656 192.683594 156.722656 192.398438 156.9375 C 192.039062 157.257812 191.894531 157.726562 192.074219 158.117188 L 193.96875 162.585938 C 194.289062 163.335938 194.21875 164.230469 193.753906 164.90625 C 193.292969 165.585938 192.503906 166.015625 191.683594 166.015625 L 183.320312 166.015625 C 182.5 166.015625 181.710938 165.585938 181.25 164.90625 C 180.820312 164.230469 180.710938 163.335938 181.035156 162.585938 L 182.964844 158.082031 C 183.109375 157.6875 183 157.257812 182.644531 156.972656 C 180.929688 155.542969 179.964844 153.433594 179.964844 151.183594 C 179.960938 148.898438 180.996094 146.714844 182.78125 145.289062 Z M 182.78125 145.289062 " fill-opacity="1" fill-rule="nonzero"/></g><g clip-path="url(#3c8d2bac16)"><path fill="#bddaec" d="M 175.0625 116.554688 C 175.0625 109.691406 180.636719 104.117188 187.5 104.117188 C 194.363281 104.117188 199.9375 109.691406 199.9375 116.554688 L 199.9375 127.917969 L 207.230469 127.917969 L 207.230469 116.449219 C 207.226562 105.582031 198.363281 96.71875 187.5 96.71875 C 176.636719 96.71875 167.773438 105.582031 167.773438 116.445312 L 167.773438 127.917969 L 175.066406 127.917969 L 175.066406 116.554688 Z M 175.0625 116.554688 " fill-opacity="1" fill-rule="nonzero"/></g><path fill="#bddaec" d="M 184.710938 158.796875 L 182.820312 163.335938 C 182.710938 163.582031 182.78125 163.765625 182.855469 163.835938 C 182.890625 163.945312 183.035156 164.085938 183.320312 164.085938 L 191.683594 164.085938 C 191.96875 164.085938 192.113281 163.941406 192.148438 163.835938 C 192.21875 163.765625 192.328125 163.585938 192.21875 163.335938 L 190.328125 158.867188 C 189.824219 157.6875 190.183594 156.332031 191.183594 155.507812 C 191.363281 155.328125 191.578125 155.152344 191.722656 154.9375 C 192.6875 153.902344 193.152344 152.578125 193.152344 151.1875 C 193.152344 150.648438 193.078125 150.078125 192.9375 149.539062 C 192.367188 147.574219 190.867188 146.144531 188.863281 145.679688 C 188.398438 145.609375 187.96875 145.535156 187.507812 145.535156 C 186.21875 145.535156 185.003906 145.964844 184.003906 146.789062 C 182.648438 147.859375 181.859375 149.46875 181.859375 151.183594 C 181.859375 152.863281 182.574219 154.433594 183.863281 155.507812 C 184.855469 156.367188 185.175781 157.6875 184.710938 158.796875 Z M 184.710938 158.796875 " fill-opacity="1" fill-rule="nonzero"/></svg>